<?xml version="1.0" encoding="UTF-8"?>
<svg id="Layer_1" xmlns="http://www.w3.org/2000/svg" xmlns:xlink="http://www.w3.org/1999/xlink" version="1.1" viewBox="0 0 600 600">
  <!-- Generator: Adobe Illustrator 29.5.1, SVG Export Plug-In . SVG Version: 2.1.0 Build 141)  -->
  <defs>
    <style>
      .st0, .st1, .st2, .st3, .st4, .st5 {
        fill: none;
      }

      .st6 {
        fill: #2b2b2b;
      }

      .st7 {
        fill: #7b6050;
      }

      .st8 {
        fill: url(#radial-gradient);
        opacity: .7;
      }

      .st9 {
        clip-path: url(#clippath-1);
      }

      .st10, .st11 {
        fill: #fff;
      }

      .st1 {
        stroke-width: 6px;
      }

      .st1, .st3 {
        stroke-miterlimit: 4;
      }

      .st1, .st3, .st4 {
        stroke: #fff;
      }

      .st12 {
        fill: #1e1e1e;
        stroke: #9a9a9a;
        stroke-width: 6px;
      }

      .st11 {
        font-family: ArialMT, Arial;
        font-size: 22px;
      }

      .st11, .st2, .st3 {
        isolation: isolate;
      }

      .st13 {
        fill: #74c4ff;
      }

      .st2 {
        opacity: .7;
        stroke: #2f2f2f;
      }

      .st2, .st4 {
        stroke-width: 8px;
      }

      .st3 {
        opacity: .9;
        stroke-width: 5px;
      }

      .st14 {
        clip-path: url(#clippath);
      }

      .st4 {
        stroke-linecap: round;
      }

      .st5 {
        stroke: #bdbdbd;
        stroke-width: 12px;
      }
    </style>
    <clipPath id="clippath">
      <circle class="st0" cx="300" cy="300" r="252" transform="translate(-124.26 300) rotate(-45)"/>
    </clipPath>
    <clipPath id="clippath-1">
      <circle class="st0" cx="300" cy="300" r="252" transform="translate(-124.26 300) rotate(-45)"/>
    </clipPath>
    <radialGradient id="radial-gradient" cx="300" cy="300" fx="300" fy="300" r="252" gradientUnits="userSpaceOnUse">
      <stop offset="0" stop-color="#fff" stop-opacity=".1"/>
      <stop offset=".39" stop-color="#c9c9c9" stop-opacity=".29"/>
      <stop offset=".89" stop-color="#2e2e2e" stop-opacity=".83"/>
      <stop offset="1" stop-color="#000"/>
    </radialGradient>
  </defs>
  <rect class="st6" width="600" height="600"/>
  <circle class="st5" cx="300" cy="300" r="280"/>
  <circle class="st12" cx="300" cy="300" r="260"/>
  <g class="st14">
    <g>
      <rect class="st13" x="197.03" y="-87.16" width="260" height="520" transform="translate(89.97 456.79) rotate(-78)"/>
      <rect class="st7" x="142.97" y="167.16" width="260" height="520" transform="translate(-201.61 605.35) rotate(-78)"/>
      <line class="st1" x1="45.68" y1="245.94" x2="554.32" y2="354.06"/>
    </g>
  </g>
  <g class="st9">
    <g id="pitch-ladder">
      <line class="st3" x1="178.23" y1="151.44" x2="471.67" y2="213.81"/>
      <text class="st11" transform="translate(130.36 149.44) rotate(12)"><tspan x="0" y="0">30</tspan></text>
      <text class="st11" transform="translate(492.28 226.37) rotate(12)"><tspan x="0" y="0">30</tspan></text>
      <line class="st3" x1="169.91" y1="190.56" x2="463.36" y2="252.93"/>
      <text class="st11" transform="translate(122.04 188.57) rotate(12)"><tspan x="0" y="0">20</tspan></text>
      <text class="st11" transform="translate(483.96 265.49) rotate(12)"><tspan x="0" y="0">20</tspan></text>
      <line class="st3" x1="161.59" y1="229.69" x2="455.04" y2="292.06"/>
      <text class="st11" transform="translate(113.73 227.69) rotate(12)"><tspan x="0" y="0">10</tspan></text>
      <text class="st11" transform="translate(475.64 304.62) rotate(12)"><tspan x="0" y="0">10</tspan></text>
      <line class="st3" x1="144.96" y1="307.94" x2="438.41" y2="370.31"/>
      <text class="st11" transform="translate(97.09 305.94) rotate(12)"><tspan x="0" y="0">10</tspan></text>
      <text class="st11" transform="translate(459.01 382.87) rotate(12)"><tspan x="0" y="0">10</tspan></text>
      <line class="st3" x1="136.64" y1="347.07" x2="430.09" y2="409.44"/>
      <text class="st11" transform="translate(88.78 345.07) rotate(12)"><tspan x="0" y="0">20</tspan></text>
      <text class="st11" transform="translate(450.69 422) rotate(12)"><tspan x="0" y="0">20</tspan></text>
      <line class="st3" x1="128.33" y1="386.19" x2="421.77" y2="448.56"/>
      <text class="st11" transform="translate(80.46 384.2) rotate(12)"><tspan x="0" y="0">30</tspan></text>
      <text class="st11" transform="translate(442.38 461.12) rotate(12)"><tspan x="0" y="0">30</tspan></text>
    </g>
  </g>
  <g id="bank-index">
    <path class="st10" d="M347.05,62.62l11.82,32.93-35.31-7,23.49-25.93Z"/>
  </g>
  <line class="st4" x1="170" y1="300" x2="430" y2="300"/>
  <circle class="st10" cx="300" cy="300" r="8"/>
  <circle class="st2" cx="300" cy="300" r="252"/>
  <circle class="st8" cx="300" cy="300" r="252"/>
  <g>
    <line class="st5" x1="80.03" y1="173" x2="102.55" y2="186"/>
    <line class="st5" x1="99.29" y1="144.33" x2="113.51" y2="155.36"/>
    <line class="st5" x1="120.39" y1="120.39" x2="138.78" y2="138.78"/>
    <line class="st5" x1="145.92" y1="98.07" x2="156.84" y2="112.38"/>
    <line class="st5" x1="173" y1="80.03" x2="186" y2="102.55"/>
    <line class="st5" x1="213.13" y1="61.32" x2="219.28" y2="78.23"/>
    <line class="st5" x1="255.89" y1="49.86" x2="259.02" y2="67.59"/>
    <line class="st5" x1="300" y1="46" x2="300" y2="72"/>
    <line class="st5" x1="344.11" y1="49.86" x2="340.98" y2="67.59"/>
    <line class="st5" x1="386.87" y1="61.32" x2="380.72" y2="78.23"/>
    <line class="st5" x1="427" y1="80.03" x2="414" y2="102.55"/>
    <line class="st5" x1="454.7" y1="98.54" x2="443.74" y2="112.82"/>
    <line class="st5" x1="479.61" y1="120.39" x2="461.22" y2="138.78"/>
    <line class="st5" x1="500.49" y1="144.04" x2="486.28" y2="155.09"/>
    <line class="st5" x1="519.97" y1="173" x2="497.45" y2="186"/>
  </g>
</svg>